<svg width="211" height="179" fill="none" xmlns="http://www.w3.org/2000/svg"><path d="M12.691 141.961V162h-6.75v-51.188h18.88c5.6 0 9.984 1.43 13.148 4.29 3.187 2.859 4.781 6.644 4.781 11.355 0 4.969-1.559 8.801-4.676 11.496-3.093 2.672-7.535 4.008-13.324 4.008H12.691zm0-5.52h12.13c3.609 0 6.374-.843 8.296-2.531 1.922-1.711 2.883-4.172 2.883-7.383 0-3.047-.96-5.484-2.883-7.312-1.922-1.828-4.558-2.777-7.91-2.848H12.691v20.074zm56.04-6.644a19.498 19.498 0 00-3.2-.246c-4.265 0-7.16 1.816-8.683 5.449v27h-6.504v-38.039h6.328l.105 4.394c2.133-3.398 5.157-5.097 9.07-5.097 1.266 0 2.227.164 2.884.492v6.047zM96.82 162c-.376-.75-.68-2.086-.915-4.008-3.023 3.141-6.633 4.711-10.828 4.711-3.75 0-6.832-1.055-9.246-3.164-2.39-2.133-3.586-4.828-3.586-8.086 0-3.961 1.5-7.031 4.5-9.211 3.023-2.203 7.266-3.304 12.727-3.304H95.8v-2.989c0-2.273-.68-4.078-2.04-5.414-1.359-1.359-3.363-2.039-6.011-2.039-2.32 0-4.266.586-5.836 1.758-1.57 1.172-2.355 2.59-2.355 4.254h-6.54c0-1.899.668-3.727 2.004-5.485 1.36-1.781 3.188-3.187 5.485-4.218 2.32-1.032 4.863-1.547 7.629-1.547 4.382 0 7.816 1.101 10.3 3.304 2.485 2.18 3.774 5.192 3.868 9.036v17.507c0 3.493.445 6.27 1.336 8.333V162h-6.82zm-10.794-4.957c2.04 0 3.973-.527 5.801-1.582 1.828-1.055 3.153-2.426 3.973-4.113v-7.805h-5.098c-7.969 0-11.953 2.332-11.953 6.996 0 2.039.68 3.633 2.04 4.781 1.358 1.149 3.104 1.723 5.237 1.723zm35.297-42.293v9.211h7.102v5.027h-7.102v23.59c0 1.524.317 2.672.949 3.445.633.75 1.711 1.125 3.235 1.125.75 0 1.781-.14 3.094-.421V162c-1.711.469-3.375.703-4.993.703-2.906 0-5.097-.879-6.574-2.637-1.476-1.757-2.215-4.254-2.215-7.488v-23.59h-6.925v-5.027h6.925v-9.211h6.504zM143.121 162h-6.504v-38.039h6.504V162zm-7.031-48.129c0-1.055.316-1.945.949-2.672.656-.726 1.617-1.09 2.883-1.09s2.226.364 2.883 1.09c.656.727.984 1.617.984 2.672 0 1.055-.328 1.934-.984 2.637-.657.703-1.617 1.054-2.883 1.054s-2.227-.351-2.883-1.054c-.633-.703-.949-1.582-.949-2.637z" fill="#000"/><path d="M103.678 58.154L70.653 79.347a3.67 3.67 0 01-5.288-4.684l35.007-72.587C100.984.806 103.678 0 103.678 0l5.384 32.142-5.384 26.012z" fill="#FF9293"/><path d="M141.992 74.663L106.985 2.076a3.671 3.671 0 00-3.307-2.073v58.151l33.025 21.193c.607.39 1.296.581 1.982.581a3.67 3.67 0 003.307-5.265zM175.531 133.516l-7.734 8.203V163h-11.859V94.75h11.859v32.016l6.562-8.11 19.969-23.906h14.344l-25.36 30.234L210.125 163h-14.063l-20.531-29.484z" fill="#F77"/><path d="M175.531 133.516l-7.734 8.203V163h-11.859V94.75h11.859v32.016l6.562-8.11 19.969-23.906h14.344l-25.36 30.234L210.125 163h-14.063l-20.531-29.484z" fill="#F77"/></svg>